<svg id="_03_feed" data-name="03 feed" xmlns="http://www.w3.org/2000/svg" width="26" height="26" viewBox="0 0 26 26">
  <path id="Trazado_10552" data-name="Trazado 10552" d="M9,20V11H6a1,1,0,0,0-1,1V26a1,1,0,0,0,1,1H20a1,1,0,0,0,1-1V23H12A3,3,0,0,1,9,20Z" transform="translate(-3 -3)" fill="none"/>
  <path id="Trazado_10553" data-name="Trazado 10553" d="M26,5H12a1,1,0,0,0-1,1V20a1,1,0,0,0,1,1H26a1,1,0,0,0,1-1V6A1,1,0,0,0,26,5Z" transform="translate(-3 -3)" fill="none"/>
  <path id="Trazado_10554" data-name="Trazado 10554" d="M26,3H12A3,3,0,0,0,9,6V9H6a3,3,0,0,0-3,3V26a3,3,0,0,0,3,3H20a3,3,0,0,0,3-3V23h3a3,3,0,0,0,3-3V6A3,3,0,0,0,26,3ZM21,26a1,1,0,0,1-1,1H6a1,1,0,0,1-1-1V12a1,1,0,0,1,1-1H9v9a3,3,0,0,0,3,3h9Zm6-6a1,1,0,0,1-1,1H12a1,1,0,0,1-1-1V6a1,1,0,0,1,1-1H26a1,1,0,0,1,1,1Z" transform="translate(-3 -3)" fill="#fff"/>
  <g id="Rectángulo_198" data-name="Rectángulo 198" transform="translate(6)" fill="#fff" stroke="#fff" stroke-width="1">
    <rect width="20" height="20" rx="3" stroke="none"/>
    <rect x="0.5" y="0.5" width="19" height="19" rx="2.5" fill="none"/>
  </g>
</svg>
