<svg xmlns="http://www.w3.org/2000/svg" width="19.071" height="19.066" viewBox="0 0 19.071 19.066">
  <path id="chat" d="M13.346,0H5.72A5.726,5.726,0,0,0,0,5.72v4.449a5.727,5.727,0,0,0,5.4,5.711v2.651a.541.541,0,0,0,.541.54.535.535,0,0,0,.38-.159l.6-.6a8.234,8.234,0,0,1,5.861-2.428h.566a5.726,5.726,0,0,0,5.72-5.72V5.72A5.726,5.726,0,0,0,13.346,0ZM5.4,9.215A1.271,1.271,0,1,1,6.673,7.944,1.272,1.272,0,0,1,5.4,9.215Zm4.131,0A1.271,1.271,0,1,1,10.8,7.944,1.272,1.272,0,0,1,9.533,9.215Zm4.131,0a1.271,1.271,0,1,1,1.271-1.271A1.272,1.272,0,0,1,13.664,9.215Z" transform="translate(0 19.066) rotate(-90)" fill="#fff"/>
</svg>
