<svg xmlns="http://www.w3.org/2000/svg" width="372.509" height="21" viewBox="0 0 372.509 21">
  <g id="Grupo_191" data-name="Grupo 191" transform="translate(-23.491 -71)">
    <text id="Registrarme" transform="translate(309 88)" fill="#fff" font-size="16" font-family="SegoeUI-Bold, Segoe UI" font-weight="700" letter-spacing="-0.03em" text-decoration="underline"><tspan x="0" y="0">Registrarme</tspan></text>
    <path id="Trazado_10548" data-name="Trazado 10548" d="M22.356,9.388H3.634L8.2,4.817A1.065,1.065,0,1,0,6.7,3.312L.311,9.7a1.084,1.084,0,0,0,0,1.505L6.7,17.592a1.081,1.081,0,0,0,1.505,0,1.065,1.065,0,0,0,0-1.505l-4.57-4.57H22.356a1.065,1.065,0,0,1,1.065,1.065V21.1a1.065,1.065,0,0,0,2.129,0V12.581A3.194,3.194,0,0,0,22.356,9.388Z" transform="translate(23.484 69.5)" fill="#fff"/>
  </g>
</svg>
