<svg xmlns="http://www.w3.org/2000/svg" width="21.154" height="21.154" viewBox="0 0 21.154 21.154">
  <g id="Icon_feather-eye-off" data-name="Icon feather-eye-off" transform="translate(0.99 0.99)">
    <path id="Trazado_10503" data-name="Trazado 10503" d="M16.264,18.149a8.776,8.776,0,0,1-5.177,1.8c-6.1,0-9.587-6.972-9.587-6.972A16.08,16.08,0,0,1,5.91,7.8M9.257,6.209A7.948,7.948,0,0,1,11.087,6c6.1,0,9.587,6.972,9.587,6.972a16.124,16.124,0,0,1-1.883,2.78m-5.857-.933a2.615,2.615,0,1,1-3.7-3.7" transform="translate(-1.5 -3.385)" fill="none" stroke="#fff" stroke-linecap="round" stroke-linejoin="round" stroke-width="1.4"/>
    <path id="Trazado_10504" data-name="Trazado 10504" d="M1.5,1.5,20.674,20.674" transform="translate(-1.5 -1.5)" fill="none" stroke="#fff" stroke-linecap="round" stroke-linejoin="round" stroke-width="1.4"/>
  </g>
</svg>
