<svg xmlns="http://www.w3.org/2000/svg" width="19.916" height="23.7" viewBox="0 0 19.916 23.7">
  <path id="Icon_awesome-apple" data-name="Icon awesome-apple" d="M16.932,14.774a4.939,4.939,0,0,1,2.646-4.487A5.685,5.685,0,0,0,15.1,7.927c-1.878-.148-3.931,1.1-4.683,1.1C9.62,9.023,7.8,7.98,6.371,7.98c-2.952.048-6.09,2.355-6.09,7.048a13.187,13.187,0,0,0,.762,4.3c.677,1.942,3.122,6.7,5.672,6.624C8.049,25.917,8.99,25,10.726,25c1.683,0,2.556.947,4.042.947,2.571-.037,4.783-4.365,5.429-6.312a5.245,5.245,0,0,1-3.265-4.862ZM13.937,6.086a4.983,4.983,0,0,0,1.27-3.836A5.61,5.61,0,0,0,11.615,4.1,5.061,5.061,0,0,0,10.26,7.9a4.444,4.444,0,0,0,3.677-1.815Z" transform="translate(-0.281 -2.25)" fill="#fff"/>
</svg>
