<svg xmlns="http://www.w3.org/2000/svg" width="19.915" height="20.301" viewBox="0 0 19.915 20.301">
  <path id="logo_google" d="M23.455,11.968l-.1-.434H13.907v4H19.55a5.648,5.648,0,0,1-5.526,4.247,6.608,6.608,0,0,1-4.447-1.772,6.348,6.348,0,0,1-1.894-4.481,6.548,6.548,0,0,1,1.86-4.476,6.326,6.326,0,0,1,4.418-1.728,5.762,5.762,0,0,1,3.759,1.464L20.56,5.959a10.052,10.052,0,0,0-6.692-2.577h0A10.345,10.345,0,0,0,6.546,6.36a10.3,10.3,0,0,0-2.89,7.171,10.2,10.2,0,0,0,2.777,7.053,10.6,10.6,0,0,0,7.639,3.1A9.423,9.423,0,0,0,20.936,20.8a10.133,10.133,0,0,0,2.636-7.019A11.688,11.688,0,0,0,23.455,11.968Z" transform="translate(-3.656 -3.382)" fill="#fff"/>
</svg>
