<svg xmlns="http://www.w3.org/2000/svg" width="26.821" height="28.162" viewBox="0 0 26.821 28.162">
  <path id="Trazado_10562" data-name="Trazado 10562" d="M2.812,15.2A11.387,11.387,0,0,1,14.4,4.023,11.387,11.387,0,0,1,25.988,15.2v4.943a1.278,1.278,0,0,0,.336.857l.439.486a4.013,4.013,0,0,1-3.107,6.677H18.534a4.136,4.136,0,0,1-8.269,0H5.144a4.013,4.013,0,0,1-3.107-6.677L2.475,21a1.278,1.278,0,0,0,.336-.857ZM14.4,6.705A8.708,8.708,0,0,0,5.491,15.2v4.943A3.961,3.961,0,0,1,4.463,22.8l-.439.486a1.333,1.333,0,0,0,1.119,2.2H23.656a1.333,1.333,0,0,0,1.119-2.2l-.439-.486a3.962,3.962,0,0,1-1.027-2.654V15.2A8.708,8.708,0,0,0,14.4,6.705ZM12.944,28.162a1.46,1.46,0,0,0,2.911,0Z" transform="translate(-0.989 -4.023)" fill="#fff" fill-rule="evenodd"/>
</svg>
