<svg xmlns="http://www.w3.org/2000/svg" width="26.821" height="26.817" viewBox="0 0 26.821 26.817">
  <path id="Trazado_10563" data-name="Trazado 10563" d="M33.4,20A13.408,13.408,0,0,0,19.993,33.408a12.46,12.46,0,0,0,1.5,6.141L20.15,43.218a2.682,2.682,0,0,0,3.437,3.437l3.669-1.341a12.46,12.46,0,0,0,6.145,1.5A13.408,13.408,0,0,0,33.4,20Zm0,24.134a9.421,9.421,0,0,1-5.81-1.788l-4.916,1.788,1.788-4.916a9.421,9.421,0,0,1-1.788-5.81A10.726,10.726,0,1,1,33.4,44.134Z" transform="translate(-19.988 -20)" fill="#fff"/>
</svg>
